<svg width="48" height="48" viewBox="0 0 48 48" fill="none" xmlns="http://www.w3.org/2000/svg">
<path d="M24 2C36.1503 2 46 11.8497 46 24C46 36.1503 36.1503 46 24 46C11.8497 46 2 36.1503 2 24C2 11.8497 11.8497 2 24 2ZM24 4C12.9543 4 4 12.9543 4 24C4 35.0457 12.9543 44 24 44C35.0457 44 44 35.0457 44 24C44 12.9543 35.0457 4 24 4ZM19.0763 11.8825C21.6126 9.37264 25.7405 9.37264 28.2777 11.8816C29.0529 12.6462 29.6073 13.571 29.9116 14.5972C31.8452 14.4021 33.7946 15.0647 35.1873 16.4459C36.4162 17.6609 37.0926 19.2782 37.0926 20.9978C37.0926 22.7188 36.4162 24.3342 35.1863 25.552C35.152 25.586 35.1158 25.6213 35.0792 25.6558C35.641 27.8392 35.0096 30.187 33.3803 31.8028C32.1509 33.0192 30.5175 33.6887 28.7801 33.6887C27.425 33.6887 26.1358 33.2768 25.0502 32.5205V37.5348C25.0502 38.0849 24.5997 38.5299 24.0449 38.5299C23.4896 38.5299 23.0396 38.0849 23.0396 37.5348V32.4103C20.4931 34.2856 16.8695 34.0868 14.5601 31.8038C12.8919 30.1535 12.2721 27.7565 12.8905 25.5373C11.6713 24.3218 11 22.7115 11 20.9978C11 19.2782 11.6769 17.6609 12.9058 16.4459C14.1291 15.2318 15.7505 14.5688 17.4573 14.5633C17.7648 13.5521 18.3146 12.6384 19.0763 11.8825ZM26.8572 13.2913C25.1022 11.5574 22.2509 11.5565 20.4987 13.2904C19.8237 13.9603 19.3881 14.8153 19.2396 15.7631L19.0879 16.7297L18.11 16.5979C16.7048 16.4069 15.3251 16.8642 14.3281 17.8519C13.4792 18.6932 13.0115 19.8103 13.0115 20.9978C13.0115 22.1862 13.4792 23.3043 14.3272 24.1437C14.4404 24.2557 14.5564 24.3586 14.6798 24.4554L15.2634 24.9155L14.9883 25.6025C14.3235 27.2578 14.7137 29.1396 15.9829 30.3945C17.698 32.0921 20.4588 32.1165 22.2194 30.4923L17.9402 26.2559C17.5477 25.8665 17.5477 25.2365 17.9411 24.8467C18.3331 24.4596 18.9706 24.4596 19.363 24.8476L23.0396 28.4875V22.5746C23.0396 22.025 23.4896 21.5796 24.0449 21.5796C24.5997 21.5796 25.0502 22.025 25.0502 22.5746V28.4871L28.7291 24.8467C29.1215 24.4596 29.759 24.4596 30.1519 24.8476C30.5453 25.2374 30.5444 25.867 30.1519 26.2559L25.8027 30.558C26.6271 31.2853 27.6681 31.6977 28.7801 31.6977C29.9803 31.6977 31.1085 31.2358 31.9575 30.3945C33.2022 29.1612 33.603 27.3079 32.979 25.6727L32.7146 24.9812L33.3079 24.5312C33.4647 24.4127 33.6183 24.2901 33.7598 24.1473C34.6134 23.3043 35.0801 22.1862 35.0801 20.9978C35.0801 19.8103 34.6134 18.6932 33.7635 17.8519C32.6288 16.7269 30.954 16.2893 29.3957 16.7122L28.2763 17.0167L28.132 15.877C28.0049 14.8828 27.5642 13.9884 26.8572 13.2913Z" fill="black"/>
</svg>
