<svg width="48" height="48" viewBox="0 0 48 48" fill="none" xmlns="http://www.w3.org/2000/svg">
<path d="M40.8714 10.5903C41.3024 10.2456 41.9913 10.3319 42.2501 10.8492C45.0944 14.7275 46.5595 19.2094 46.5595 24.036C46.6458 36.1884 36.6479 46.1862 24.323 46.1862C19.8387 46.1862 15.5999 44.8938 11.9039 42.41L12.5153 44.5491C12.6875 45.0659 12.3428 45.6694 11.8255 45.7553C11.8255 45.9274 11.7392 45.9274 11.6534 45.9274C11.2224 45.9274 10.7914 45.6694 10.7051 45.238L9.0675 39.6362L14.5839 37.9981C15.1008 37.826 15.7043 38.1711 15.7901 38.6879C15.9627 39.2052 15.618 39.8083 15.1008 39.8941L12.7204 40.5747C16.1422 42.9356 20.1463 44.2039 24.2367 44.2039C35.4412 44.2039 44.4909 35.068 44.4909 23.9498C44.4909 19.6404 43.1121 15.5032 40.6125 11.9695C40.2678 11.5386 40.3541 10.8492 40.8714 10.5903ZM24.2796 2C28.7926 2 33.0973 3.33026 36.7971 5.82684L36.4955 3.57133C36.4227 3.02673 36.8096 2.52577 37.3603 2.45367C37.9054 2.37974 38.4166 2.76454 38.4899 3.31005L39.2456 8.96765L33.5329 9.71934C33.487 9.72622 33.4429 9.72852 33.3984 9.72852C32.9015 9.72852 32.4701 9.36439 32.4024 8.8648C32.3295 8.31974 32.7169 7.81786 33.2671 7.74577L35.615 7.43673C32.2613 5.18857 28.3649 3.99056 24.2796 3.99056C13.1039 3.99056 4.01247 12.9901 4.01247 24.0509C4.01247 28.6221 5.52438 32.9269 8.38629 36.5008C8.73005 36.9333 8.65722 37.5583 8.22067 37.8999C8.03649 38.0459 7.81613 38.1153 7.59809 38.1153C7.30119 38.1153 7.00706 37.9862 6.80851 37.7378C3.66361 33.8081 2 29.0758 2 24.0509C2 11.8922 11.9946 2 24.2796 2ZM36.0001 15.5407C36.5524 15.5407 37.0001 15.9884 37.0001 16.5407V28.5407C37.0001 29.093 36.5524 29.5407 36.0001 29.5407L28 29.54L28.0001 33.5407C28.0001 34.0536 27.6141 34.4762 27.1167 34.534L27.0001 34.5407H21.0001C20.4478 34.5407 20.0001 34.093 20.0001 33.5407L20 29.54L12.0001 29.5407C11.4873 29.5407 11.0646 29.1547 11.0068 28.6573L11.0001 28.5407V16.5407C11.0001 15.9884 11.4478 15.5407 12.0001 15.5407H36.0001ZM26.0001 29.5407H22.0001V32.5407H26.0001V29.5407ZM35.0001 17.5407H13.0001V18.4407H15.0001C15.3315 18.4407 15.6001 18.7094 15.6001 19.0407C15.6001 19.3721 15.3315 19.6407 15.0001 19.6407H13.0001V27.5407H35.0001V19.6407H33.0001C32.6687 19.6407 32.4001 19.3721 32.4001 19.0407C32.4001 18.7094 32.6687 18.4407 33.0001 18.4407H35.0001V17.5407ZM19.0001 18.4407C19.3315 18.4407 19.6001 18.7094 19.6001 19.0407C19.6001 19.3721 19.3315 19.6407 19.0001 19.6407H17.0001C16.6687 19.6407 16.4001 19.3721 16.4001 19.0407C16.4001 18.7094 16.6687 18.4407 17.0001 18.4407H19.0001ZM23.0001 18.4407C23.3315 18.4407 23.6001 18.7094 23.6001 19.0407C23.6001 19.3721 23.3315 19.6407 23.0001 19.6407H21.0001C20.6687 19.6407 20.4001 19.3721 20.4001 19.0407C20.4001 18.7094 20.6687 18.4407 21.0001 18.4407H23.0001ZM27.0001 18.4407C27.3315 18.4407 27.6001 18.7094 27.6001 19.0407C27.6001 19.3721 27.3315 19.6407 27.0001 19.6407H25.0001C24.6687 19.6407 24.4001 19.3721 24.4001 19.0407C24.4001 18.7094 24.6687 18.4407 25.0001 18.4407H27.0001ZM31.0001 18.4407C31.3315 18.4407 31.6001 18.7094 31.6001 19.0407C31.6001 19.3721 31.3315 19.6407 31.0001 19.6407H29.0001C28.6687 19.6407 28.4001 19.3721 28.4001 19.0407C28.4001 18.7094 28.6687 18.4407 29.0001 18.4407H31.0001Z" fill="#010202"/>
</svg>
